<svg xmlns="http://www.w3.org/2000/svg" fill="none" viewBox="0 0 32 32" id="Metamask-Icon--Streamline-Svg-Logos" height="32" width="32">
  <desc>
    Metamask Icon Streamline Icon: https://streamlinehq.com
  </desc>
  <path fill="#e17726" d="M30.940299999999997 1.31657 17.49543333333333 11.264833333333332l2.5002 -5.862833333333333 10.944666666666667 -4.08543Z" stroke-width="0.3333"/>
  <path fill="#e27625" d="M1.09082 1.3282066666666665 12.0062 5.402666666666666l2.374033333333333 5.939699999999999L1.09082 1.3282066666666665Z" stroke-width="0.3333"/>
  <path fill="#e27625" d="m25.52963333333333 22.473633333333332 5.9424 0.11309999999999999 -2.0768 7.055166666666667 -7.251033333333333 -1.9964666666666666 3.3854333333333333 -5.171799999999999Z" stroke-width="0.3333"/>
  <path fill="#e27625" d="m6.470033333333333 22.473633333333332 3.3729 5.171833333333333 -7.238899999999999 1.9965666666666666 -2.0641566666666664 -7.0553 5.930156666666666 -0.11309999999999999Z" stroke-width="0.3333"/>
  <path fill="#e27625" d="m14.057699999999999 9.829333333333333 0.24293333333333333 7.843566666666666 -7.266766666666666 -0.33063333333333333 2.0669666666666666 -3.118333333333333 0.026166666666666664 -0.030066666666666665L14.057699999999999 9.829333333333333Z" stroke-width="0.3333"/>
  <path fill="#e27625" d="m17.867066666666666 9.741933333333332 5.005933333333333 4.452333333333333 0.0259 0.02983333333333333 2.0670333333333333 3.118333333333333 -7.2651 0.3305666666666667 0.16623333333333332 -7.931066666666666Z" stroke-width="0.3333"/>
  <path fill="#e27625" d="m10.0557 22.496333333333332 3.9678666666666667 3.091566666666666 -4.609166666666667 2.2253666666666665 0.6413 -5.316933333333333Z" stroke-width="0.3333"/>
  <path fill="#e27625" d="m21.944966666666666 22.49583333333333 0.6279999999999999 5.317433333333333 -4.596233333333333 -2.2255666666666665 3.968233333333333 -3.0918666666666668Z" stroke-width="0.3333"/>
  <path fill="#d5bfb2" d="m18.077966666666665 25.296533333333333 4.664133333333333 2.2584666666666666 -4.338566666666667 2.0619666666666667 0.04503333333333333 -1.3628333333333331 -0.37059999999999993 -2.9576Z" stroke-width="0.3333"/>
  <path fill="#d5bfb2" d="m13.920733333333333 25.297533333333334 -0.35606666666666664 2.9342666666666664 0.029199999999999997 1.3835 -4.348733333333334 -2.0603333333333333 4.675599999999999 -2.257433333333333Z" stroke-width="0.3333"/>
  <path fill="#233447" d="m12.573899999999998 18.696599999999997 1.2188333333333332 2.5614999999999997 -4.149666666666667 -1.2155666666666667 2.930833333333333 -1.3459333333333332Z" stroke-width="0.3333"/>
  <path fill="#233447" d="m19.426199999999998 18.696866666666665 2.9446 1.3455666666666666 -4.163133333333333 1.2152666666666665 1.2185333333333332 -2.560833333333333Z" stroke-width="0.3333"/>
  <path fill="#cc6228" d="m10.373166666666666 22.470299999999998 -0.6708 5.512666666666666 -3.5950999999999995 -5.392166666666666 4.2659 -0.1205Z" stroke-width="0.3333"/>
  <path fill="#cc6228" d="m21.627266666666664 22.470366666666667 4.266033333333333 0.12053333333333333L22.284666666666666 27.9832l-0.6574 -5.512833333333333Z" stroke-width="0.3333"/>
  <path fill="#cc6228" d="m25.070899999999998 17.030666666666665 -3.104633333333333 3.164066666666667 -2.3936333333333333 -1.0938333333333332 -1.1460666666666666 2.4092 -0.7512666666666666 -4.142933333333334 7.3956 -0.3365Z" stroke-width="0.3333"/>
  <path fill="#cc6228" d="m6.9274 17.0306 7.3969 0.33653333333333335 -0.7512999999999999 4.142966666666666 -1.1462666666666665 -2.408933333333333 -2.381033333333333 1.0936 -3.1183 -3.1641666666666666Z" stroke-width="0.3333"/>
  <path fill="#e27525" d="m6.7184333333333335 16.381433333333334 3.512533333333333 3.5642666666666667 0.12173333333333333 3.5187333333333335 -3.634266666666666 -7.082999999999999Z" stroke-width="0.3333"/>
  <path fill="#e27525" d="M25.2853 16.375 21.64453333333333 23.470666666666666l0.13706666666666667 -3.5250333333333335L25.2853 16.375Z" stroke-width="0.3333"/>
  <path fill="#e27525" d="m14.1528 16.5983 0.14136666666666664 0.8898333333333334 0.34933333333333333 2.216666666666667 -0.22456666666666664 6.808333333333334 -1.0617999999999999 -5.469199999999999 -0.00036666666666666667 -0.05653333333333333 0.7960333333333334 -4.389099999999999Z" stroke-width="0.3333"/>
  <path fill="#e27525" d="m17.845333333333333 16.5861 0.7981333333333334 4.401366666666666 -0.0003333333333333333 0.05653333333333333 -1.0644666666666667 5.482866666666666 -0.042133333333333335 -1.3713666666666664 -0.1661 -5.4909333333333326 0.4749 -3.0784666666666665Z" stroke-width="0.3333"/>
  <path fill="#f5841f" d="m22.093999999999998 19.803866666666664 -0.11886666666666665 3.0572 -3.7053999999999996 2.8869999999999996 -0.7490666666666665 -0.5292666666666667 0.8396666666666667 -4.3248999999999995 3.7336666666666667 -1.0900333333333332Z" stroke-width="0.3333"/>
  <path fill="#f5841f" d="m9.918766666666667 19.803966666666668 3.720833333333333 1.0900333333333332 0.8396333333333332 4.324833333333333 -0.7491 0.5292333333333332 -3.7055999999999996 -2.887233333333333 -0.10576666666666668 -3.0568666666666666Z" stroke-width="0.3333"/>
  <path fill="#c0ac9d" d="m8.536133333333332 26.879799999999996 4.740633333333333 2.2462 -0.020066666666666663 -0.9591666666666666L13.653333333333332 27.818666666666665h4.691933333333333l0.41100000000000003 0.347 -0.030266666666666667 0.9585 4.710566666666667 -2.2386999999999997 -2.2921666666666667 1.8941666666666666L18.372666666666667 30.68333333333333H13.615366666666667l-2.769933333333333 -1.9114999999999998 -2.3093 -1.8920333333333332Z" stroke-width="0.3333"/>
  <path fill="#161616" d="m17.738366666666664 24.997633333333333 0.6702666666666667 0.4734666666666667 0.3927999999999999 3.1339333333333332 -0.5684333333333333 -0.48H13.768566666666667l-0.5576333333333333 0.4896666666666667 0.37989999999999996 -3.143366666666666 0.6704999999999999 -0.4737h3.4770333333333334Z" stroke-width="0.3333"/>
  <path fill="#763e1a" d="m30.052833333333332 1.5919599999999998 1.6138666666666666 4.841673333333333 -1.0078666666666667 4.8953999999999995 0.7176999999999999 0.5536666666666666 -0.9711666666666666 0.7409666666666667 0.7298333333333332 0.5636666666666666 -0.9664666666666666 0.8802333333333332 0.5933666666666666 0.42969999999999997 -1.5747 1.8390999999999997 -6.458833333333333 -1.8805333333333334 -0.055966666666666665 -0.03 -4.654366666666666 -3.926266666666667L30.052833333333332 1.5919599999999998Z" stroke-width="0.3333"/>
  <path fill="#763e1a" d="M1.9472466666666666 1.5919599999999998 13.981866666666665 10.499566666666666l-4.654333333333333 3.926266666666667 -0.056 0.03 -6.45886 1.8805333333333334 -1.5746866666666666 -1.8390999999999997 0.5928933333333333 -0.4293666666666667 -0.96604 -0.8805333333333333 0.7285033333333333 -0.5630999999999999 -0.98568 -0.7430666666666667 0.7447733333333333 -0.5539999999999999L0.3333333333333333 6.4338 1.9472466666666666 1.5919599999999998Z" stroke-width="0.3333"/>
  <path fill="#f5841f" d="m22.412633333333332 14.0445 6.843566666666666 1.9924666666666666 2.2233666666666663 6.8524 -5.865666666666667 0 -4.041633333333333 0.051 2.939233333333333 -5.7291 -2.0988666666666664 -3.1667666666666663Z" stroke-width="0.3333"/>
  <path fill="#f5841f" d="m9.587399999999999 14.0445 -2.0992333333333333 3.1667666666666663 2.939633333333333 5.7291 -4.039633333333333 -0.051H0.5328766666666667l2.21088 -6.852333333333332 6.8436433333333335 -1.9925333333333333Z" stroke-width="0.3333"/>
  <path fill="#f5841f" d="m20.330766666666666 5.3693 -1.9142000000000001 5.169866666666667 -0.40619999999999995 6.984 -0.1554333333333333 2.189 -0.012333333333333332 5.591966666666666H14.1571l-0.011966666666666667 -5.581466666666666 -0.1559333333333333 -2.201433333333333 -0.4064 -6.982066666666666 -1.9138666666666666 -5.169866666666667h8.661833333333332Z" stroke-width="0.3333"/>
</svg>